<svg width="25" height="32" viewBox="0 0 25 32" fill="none" xmlns="http://www.w3.org/2000/svg">
<path d="M9.71905 17.1931C7.71195 19.7421 3.73886 19.8094 1.49629 17.5257C-0.634157 15.3803 -0.372524 11.9604 1.54114 9.8337C2.46807 7.01554 6.54581 7.36687 8.69494 9.08618C11.1842 11.0933 11.7486 14.6104 9.71905 17.1931Z" fill="#FFDCDC"/>
<path d="M13.5055 9.48248C11.532 9.48248 10.7209 8.2528 10.5527 6.75775C9.91734 4.88895 10.7695 2.70244 12.8588 2.15675C13.3532 2.03218 13.8682 2.01306 14.3704 2.10061C14.8727 2.18816 15.3508 2.38044 15.7739 2.66493C16.1969 2.94942 16.5553 3.31976 16.8259 3.75187C17.0964 4.18398 17.2729 4.66819 17.344 5.173C17.4098 5.71495 17.3595 6.26469 17.1963 6.78568C17.0332 7.30666 16.7611 7.78695 16.3979 8.19461C16.0348 8.60227 15.5891 8.92795 15.0904 9.15001C14.5917 9.37206 14.0514 9.4854 13.5055 9.48248Z" fill="#FFDCDC"/>
<path d="M19.7286 31.1232L19.8519 30.8914C19.0259 30.3644 18.2036 29.8299 17.3813 29.2992C16.6764 28.7488 16.0346 28.1221 15.4677 27.4304C14.6977 26.5819 13.924 25.7298 13.1504 24.8851C13.0831 24.8141 12.9971 24.7318 12.9896 24.6646C12.2241 23.8586 11.5931 22.9348 11.1208 21.9286C10.6261 21.1492 10.1793 20.3403 9.78276 19.5066C9.74165 19.4169 9.83509 19.26 9.86499 19.1329C10.0312 19.0951 10.1911 19.0334 10.3397 18.9497C10.8287 18.5216 11.1853 17.9627 11.3675 17.3388C12.1562 15.3205 12.8327 13.276 12.7579 11.0671C12.7382 10.9488 12.7043 10.8334 12.657 10.7232C12.5517 10.7791 12.4548 10.8495 12.3692 10.9325C11.8459 11.624 11.3152 12.3117 10.8218 13.0256C10.0885 14.0381 9.57889 15.1949 9.32677 16.4194C9.21465 16.9987 9.1997 17.593 9.14363 18.1798C9.11017 18.1322 9.08019 18.0822 9.05393 18.0303C8.73997 17.2828 8.43722 16.5352 8.11205 15.7877C8.06716 15.7004 8.05381 15.6003 8.07424 15.5042C8.09467 15.4082 8.14763 15.3222 8.22418 15.2607C8.60058 14.908 8.94227 14.52 9.24455 14.102C10.0565 12.7658 10.646 11.3066 10.99 9.78135C11.114 9.23408 11.1953 8.67799 11.233 8.11811C11.233 7.94618 11.1134 7.76304 11.0498 7.58363C10.8726 7.64949 10.7082 7.7456 10.5639 7.86769C10.1603 8.35358 9.77529 8.85816 9.409 9.36274C8.66246 10.3041 8.13398 11.3994 7.86163 12.5696C7.76071 13.1377 7.71586 13.7171 7.64111 14.2927H7.60373L6.91975 11.5866L7.1141 11.8744C7.19087 11.7195 7.27959 11.5708 7.37947 11.4296C7.82425 10.8727 8.39611 10.3831 8.70259 9.75892C9.15348 8.79287 9.52837 7.79315 9.82388 6.76883C9.93846 6.28999 9.99864 5.79975 10.0033 5.30742C10.0033 5.18408 9.91732 5.057 9.86873 4.93366C9.76781 4.97477 9.62578 4.98972 9.57346 5.06447C8.84462 6.06989 8.07841 7.05289 7.42433 8.09942C7.1386 8.65956 6.90586 9.24517 6.72913 9.84863C6.61912 9.48953 6.63897 9.10318 6.78519 8.75724C7.39804 7.20666 7.80881 5.58367 8.00739 3.92824C8.12032 2.76188 8.17147 1.59037 8.16064 0.418613C8.13963 0.273465 8.09679 0.13233 8.03356 0C7.899 0.0672772 7.7196 0.104653 7.6299 0.213044C6.86782 1.09526 6.3169 2.1396 6.01898 3.26668C5.61532 5.01589 5.79472 6.76509 6.12737 8.49935C6.28061 9.29546 6.44507 10.0878 6.60579 10.8914C5.80967 10.5887 5.11074 10.2822 4.39312 10.0579C3.14266 9.72072 1.83061 9.68104 0.562057 9.94207C0.402699 9.99572 0.254495 10.0781 0.124756 10.185C0.203762 10.3448 0.305762 10.4921 0.427503 10.6223C1.29031 11.3235 2.36564 11.7109 3.4774 11.7212C4.36016 11.7447 5.2416 11.6389 6.09373 11.4072C6.5572 11.2764 6.617 11.3287 6.72165 11.781C6.84873 12.3304 6.97581 12.8798 7.11784 13.4255C7.21876 13.8292 7.3421 14.2329 7.46544 14.6851C7.35705 14.6253 7.29725 14.5991 7.24118 14.5618C6.3907 13.9552 5.34417 13.6886 4.30715 13.8142C3.22324 13.9899 2.15802 14.2852 1.08532 14.5356C0.912995 14.5741 0.745144 14.6305 0.584483 14.7038C0.530368 14.7213 0.483196 14.7555 0.449738 14.8015C0.41628 14.8475 0.398258 14.9029 0.398258 14.9598C0.398258 15.0167 0.41628 15.0721 0.449738 15.1181C0.483196 15.1641 0.530368 15.1983 0.584483 15.2158C1.11613 15.485 1.6717 15.7039 2.24399 15.8699C2.93485 15.9918 3.63265 16.0705 4.33332 16.1054C5.48623 16.2165 6.64785 16.0165 7.69717 15.5261L8.96796 18.5535C7.57668 18.0275 6.06666 17.8981 4.60616 18.1798C3.48488 18.4227 2.36359 18.8152 1.2722 19.159C1.13391 19.2039 1.02552 19.3459 0.898443 19.4394C1.01431 19.5627 1.10775 19.7458 1.24978 19.8131C1.93595 20.1196 2.64596 20.3696 3.37275 20.5606C4.06662 20.6656 4.76783 20.7143 5.46955 20.7064C6.69515 20.7127 7.90462 20.427 8.99786 19.8729C9.14664 19.7984 9.29136 19.7161 9.43143 19.6262L11.9095 23.8161C11.5357 23.6703 11.0984 23.4797 10.6574 23.3452C8.78856 22.7696 6.84126 22.7696 4.90517 22.9714C4.19502 23.0387 3.49235 23.1919 2.78968 23.319C2.48693 23.3751 2.41592 23.5283 2.60653 23.7152C3.20943 24.3571 3.93184 24.8751 4.73324 25.2401C6.08502 25.7899 7.53111 26.0705 8.99039 26.0662C10.233 26.1389 11.4661 25.81 12.5075 25.128C12.5858 25.0955 12.671 25.0833 12.7553 25.0925C12.8395 25.1016 12.9201 25.1318 12.9896 25.1803C13.8007 26.0736 14.5819 26.9931 15.4116 27.9499L14.7538 27.7331C13.9118 27.4311 13.0306 27.2523 12.1375 27.2024C10.4538 27.1662 8.78297 27.5032 7.24492 28.1891C6.82257 28.3611 6.38153 28.4956 5.95544 28.6526C5.85693 28.6962 5.76196 28.7475 5.67138 28.8058C5.74614 28.9142 5.79846 29.0824 5.89564 29.1198C6.69175 29.4039 7.47665 29.7963 8.29893 29.8972C10.0818 30.1177 11.8833 30.3569 13.6886 30.0131C14.6118 29.8412 15.5387 29.6842 16.2862 29.0413C16.343 28.9993 16.403 28.9618 16.4656 28.9292C16.6003 29.0823 16.7479 29.2236 16.9067 29.3515C17.7215 29.9047 18.5363 30.4728 19.366 30.9849L19.6875 31.183C19.707 31.1678 19.7214 31.1469 19.7286 31.1232ZM9.637 6.04747C9.26324 7.76677 8.88947 9.50477 7.49908 10.7756C8.04081 9.12831 8.75623 7.54336 9.63326 6.04747H9.637ZM9.21838 5.92039C8.51945 7.52757 7.72334 9.3291 6.97581 11.1082C6.95712 8.97029 8.05225 7.322 9.21465 5.92039H9.21838ZM1.25352 10.1588C2.6498 9.96944 4.0713 10.1646 5.3649 10.7232L1.25352 10.2523V10.1588ZM0.79379 10.484L5.83584 11.097C4.6398 11.8146 1.59738 11.4035 0.79379 10.484ZM6.31052 7.89012C5.64148 5.27378 6.31052 1.8875 7.77566 0.538217C6.83004 2.88918 6.68428 5.39339 6.31052 7.89012ZM7.80556 1.27079C8.14195 2.18277 7.39816 6.73519 6.63943 8.14427C6.845 5.83816 6.9945 3.52084 7.79809 1.27079H7.80556ZM6.38901 14.4459C6.68054 14.5805 6.94965 14.7561 7.22997 14.9131L7.19259 15.0439C5.27797 14.7861 3.34482 14.6923 1.41423 14.7636C3.05131 14.3113 4.67718 13.6573 6.38901 14.4459ZM1.26473 15.1934C1.88517 14.943 6.25071 15.0551 7.33462 15.3504C6.15727 16.0718 2.18418 15.9409 1.26473 15.1897V15.1934ZM8.22418 14.8197C8.93764 12.7067 9.84345 10.6636 10.9302 8.71613C10.4256 10.9101 9.88368 13.1041 8.22418 14.8047V14.8197ZM10.8405 7.98356L8.03356 14.0759C7.94386 11.5866 9.45385 9.81499 10.8405 7.9686V7.98356ZM1.28342 19.5702C3.60822 18.3517 7.31593 17.9144 9.02776 19.0506C8.90276 19.0495 8.77795 19.0407 8.654 19.0245C7.34957 18.7853 6.0601 18.9759 4.77435 19.1702C3.81005 19.316 2.84574 19.458 1.88144 19.5889C1.68517 19.5914 1.489 19.5789 1.29463 19.5515L1.28342 19.5702ZM2.22156 19.8094C4.52767 19.5291 6.80762 18.8937 9.18101 19.3235C8.17559 20.299 4.43049 20.9307 2.22156 19.8094ZM12.4626 11.8296C12.4738 11.9464 12.4738 12.0641 12.4626 12.1809C12.2608 13.1788 12.0889 14.1917 11.8272 15.171C11.5595 16.0808 11.2298 16.9712 10.8405 17.8359C10.6308 18.1861 10.3798 18.5099 10.093 18.8002C10.0145 18.9011 9.94348 19.0058 9.86873 19.1104C9.84257 18.9609 9.76034 18.7928 9.80519 18.6694C10.4032 17.0273 11.0099 15.389 11.6254 13.7544C11.8646 13.1078 12.115 12.465 12.3729 11.8184L12.4626 11.8296ZM11.8422 12.2594C11.076 14.2702 10.3135 16.2848 9.52487 18.3554C9.34546 15.9223 10.377 14.0086 11.8422 12.2594ZM11.6217 24.1002L3.78389 23.547C5.26398 22.9901 9.82014 22.9378 11.6217 24.1002ZM10.5004 25.5952C8.31322 25.9623 6.06608 25.5915 4.1128 24.5412C3.81061 24.3467 3.52664 24.1253 3.26436 23.8797L3.30547 23.7974C6.31052 24.0267 9.32054 24.2584 12.3356 24.4926C12.3991 24.4926 12.4552 24.5898 12.5523 24.6758C11.9746 25.1737 11.264 25.492 10.5079 25.5915L10.5004 25.5952ZM15.677 28.4059C12.9261 28.5928 10.1715 28.4844 7.3421 28.4807C10.1528 27.251 12.9074 27.109 15.677 28.4059ZM15.4714 29.1945C14.148 29.6833 12.7391 29.8982 11.3301 29.8262C10.7321 29.7851 10.1378 29.7216 9.53982 29.7178C8.4779 29.679 7.43611 29.4166 6.48245 28.9479C9.68559 28.6302 12.8999 29.0151 16.1031 28.6675C16.1031 28.7087 16.1218 28.746 16.1292 28.7834C15.9268 28.9498 15.7061 29.0928 15.4714 29.2095V29.1945Z" fill="#AE7C78"/>
<path d="M14.7687 7.96105C14.4659 8.72726 13.8866 9.03748 13.2363 8.77959C12.9281 8.67159 12.6745 8.44716 12.5299 8.15441C12.3853 7.86165 12.3611 7.52389 12.4626 7.21352C12.698 6.60055 13.5839 6.15952 14.1744 6.38377C14.4526 6.52488 14.6679 6.76505 14.7779 7.05697C14.8879 7.3489 14.8846 7.67143 14.7687 7.96105ZM14.4771 7.84892C14.555 7.62951 14.5519 7.38947 14.4683 7.17218C14.3846 6.95489 14.226 6.77467 14.0212 6.66409C13.7642 6.60641 13.4953 6.63655 13.2574 6.7497C13.0196 6.86286 12.8266 7.05249 12.7093 7.28828C12.666 7.40714 12.6473 7.53351 12.6542 7.6598C12.6611 7.78608 12.6934 7.90967 12.7493 8.02314C12.8051 8.13661 12.8834 8.23761 12.9793 8.32007C13.0751 8.40254 13.1867 8.46476 13.3073 8.503C13.8006 8.69736 14.2454 8.4432 14.4771 7.84892Z" fill="#AE7C78"/>
<path d="M4.22842 7.10146C4.33184 7.13184 4.4282 7.18243 4.51193 7.25032C4.59565 7.3182 4.66508 7.40202 4.71618 7.49693C4.76728 7.59183 4.79904 7.69593 4.80963 7.8032C4.82022 7.91046 4.80941 8.01876 4.77785 8.12183C4.73174 8.24821 4.66091 8.36415 4.5695 8.46286C4.47809 8.56158 4.36793 8.64109 4.24545 8.69676C4.12297 8.75243 3.99063 8.78315 3.85615 8.78711C3.72167 8.79107 3.58775 8.76821 3.46221 8.71985C3.27195 8.62857 3.12571 8.4655 3.05563 8.26646C2.98554 8.06742 2.99735 7.8487 3.08845 7.65836C3.12166 7.54355 3.17855 7.43697 3.25545 7.34547C3.33235 7.25398 3.42756 7.17961 3.53495 7.12715C3.64234 7.07468 3.75953 7.04529 3.87897 7.04087C3.9984 7.03645 4.11744 7.05708 4.22842 7.10146ZM4.11629 7.36309C4.03957 7.33127 3.95706 7.31577 3.87403 7.3176C3.79099 7.31942 3.70924 7.33852 3.63399 7.37369C3.55874 7.40885 3.49165 7.4593 3.43697 7.52183C3.3823 7.58435 3.34125 7.65759 3.31644 7.73685C3.25554 7.86918 3.24673 8.01958 3.29175 8.15812C3.33677 8.29665 3.43233 8.41314 3.55939 8.48438C3.74375 8.54511 3.94416 8.53469 4.12122 8.45515C4.29828 8.37561 4.43918 8.23271 4.51622 8.05455C4.53415 7.98362 4.53794 7.90986 4.52736 7.83747C4.51677 7.76508 4.49203 7.69549 4.45455 7.63266C4.41706 7.56984 4.36756 7.51502 4.30888 7.47133C4.2502 7.42764 4.18349 7.39594 4.11255 7.37804L4.11629 7.36309Z" fill="#AE7C78"/>
<path d="M11.9054 5.0158C12.0922 4.58597 12.3763 4.39909 12.6529 4.52243C12.8178 4.60949 12.9461 4.75268 13.0147 4.9261C13.0832 5.09953 13.0875 5.29176 13.0266 5.46805C12.9422 5.60937 12.8078 5.71388 12.65 5.76094C12.4922 5.80799 12.3225 5.79417 12.1745 5.72221C12.1047 5.70093 12.0407 5.66399 11.9874 5.61419C11.9341 5.5644 11.8929 5.50307 11.8669 5.4349C11.8409 5.36674 11.8309 5.29354 11.8376 5.2209C11.8442 5.14826 11.8674 5.0781 11.9054 5.0158Z" fill="#AE7C78"/>
<path d="M3.76134 5.26994C3.83093 5.29806 3.89392 5.34033 3.94631 5.39407C3.99871 5.44781 4.03937 5.51184 4.06573 5.58212C4.09208 5.65239 4.10355 5.72738 4.09941 5.80232C4.09526 5.87726 4.0756 5.95052 4.04167 6.01746C3.98002 6.15618 3.87075 6.26825 3.73364 6.33338C3.59652 6.39851 3.44061 6.4124 3.29414 6.37253C3.04372 6.27162 2.96149 5.96887 3.09231 5.6437C3.22313 5.31853 3.4885 5.15781 3.76134 5.26994Z" fill="#AE7C78"/>
<path d="M1.39917 6.59317C1.52999 6.2194 1.74303 6.2194 1.90001 6.32406C2.05699 6.42871 2.07942 6.60438 2.16912 6.75015C2.00118 6.84548 1.81544 6.90527 1.62343 6.92581C1.52251 6.9146 1.44776 6.66792 1.39917 6.59317Z" fill="#AE7C78"/>
<path d="M14.1147 5.05705C14.0437 4.80289 13.9391 4.61975 13.9877 4.55247C14.122 4.40478 14.2783 4.27871 14.4511 4.17871C14.528 4.3626 14.5711 4.55886 14.5782 4.75804C14.5782 4.85896 14.3465 4.91502 14.1147 5.05705Z" fill="#AE7C78"/>
<path d="M20.2256 16.4679C23.283 16.8753 24.1688 18.3853 24.1688 19.9514C24.1688 22.1491 22.4271 23.689 19.5304 23.689C18.9549 23.689 17.7925 23.6292 16.2077 23.6292C15.3032 23.6292 14.3389 23.6516 13.8119 23.689V23.3152C15.1238 23.2592 15.378 23.0611 15.378 21.6557V12.065C15.378 10.6597 15.1238 10.4616 13.8119 10.4055V10.0317C14.3501 10.0691 15.3069 10.0878 16.1703 10.0878C17.3888 10.0878 18.6222 10.0504 19.0857 10.0504C21.7917 10.0355 23.1746 11.2913 23.1746 13.0816C23.1746 14.4496 22.4009 15.7802 20.2406 16.4455L20.2256 16.4679ZM17.172 12.065V16.4455H18.4727C20.7452 16.4455 21.3058 14.9504 21.3058 13.2797C21.3058 11.3848 20.5321 10.4055 18.596 10.4055C17.4262 10.4055 17.172 10.7344 17.172 12.065ZM22.2365 19.8654C22.2365 17.9032 21.246 16.7632 18.7941 16.7632H17.172V21.6483C17.172 22.9975 17.4262 23.2517 18.6222 23.2517C21.1526 23.2517 22.2365 22.0519 22.2365 19.8654Z" fill="#AE7C78"/>
</svg>
