<svg width="32" height="32" viewBox="0 0 26 28" fill="none" xmlns="http://www.w3.org/2000/svg">
<path d="M10.7176 18.1931C8.71047 20.7421 4.73738 20.8094 2.49481 18.5257C0.364367 16.3803 0.626 12.9604 2.53966 10.8337C3.46659 8.01554 7.54433 8.36687 9.69347 10.0862C12.1827 12.0933 12.7471 15.6104 10.7176 18.1931Z" fill="#FFDCDC"/>
<path d="M14.504 10.4825C12.5305 10.4825 11.7195 9.2528 11.5513 7.75775C10.9159 5.88895 11.7681 3.70244 13.8574 3.15675C14.3517 3.03218 14.8668 3.01306 15.369 3.10061C15.8712 3.18816 16.3494 3.38044 16.7724 3.66493C17.1955 3.94942 17.5539 4.31976 17.8244 4.75187C18.0949 5.18398 18.2715 5.66819 18.3425 6.173C18.4083 6.71495 18.358 7.26469 18.1949 7.78568C18.0318 8.30666 17.7596 8.78695 17.3965 9.19461C17.0334 9.60227 16.5877 9.92795 16.0889 10.15C15.5902 10.3721 15.0499 10.4854 14.504 10.4825V10.4825Z" fill="#FFDCDC"/>
<path d="M20.7271 32.1232L20.8504 31.8914C20.0244 31.3644 19.2022 30.8299 18.3799 30.2992C17.675 29.7488 17.0332 29.1221 16.4662 28.4304C15.6963 27.5819 14.9226 26.7298 14.1489 25.8851C14.0816 25.8141 13.9957 25.7318 13.9882 25.6646C13.2227 24.8586 12.5917 23.9348 12.1194 22.9286C11.6247 22.1492 11.1778 21.3403 10.7813 20.5066C10.7402 20.4169 10.8336 20.26 10.8635 20.1329C11.0298 20.0951 11.1897 20.0334 11.3382 19.9497C11.8272 19.5216 12.1838 18.9627 12.3661 18.3388C13.1547 16.3205 13.8312 14.276 13.7564 12.0671C13.7367 11.9488 13.7028 11.8334 13.6555 11.7232C13.5502 11.7791 13.4533 11.8495 13.3677 11.9325C12.8445 12.624 12.3137 13.3117 11.8204 14.0256C11.0871 15.0381 10.5774 16.1949 10.3253 17.4194C10.2132 17.9987 10.1982 18.593 10.1422 19.1798C10.1087 19.1322 10.0787 19.0822 10.0525 19.0303C9.73851 18.2828 9.43576 17.5352 9.11059 16.7877C9.0657 16.7004 9.05235 16.6003 9.07278 16.5042C9.09321 16.4082 9.14617 16.3222 9.22272 16.2607C9.59912 15.908 9.94081 15.52 10.2431 15.102C11.055 13.7658 11.6445 12.3066 11.9886 10.7814C12.1126 10.2341 12.1938 9.67799 12.2315 9.11811C12.2315 8.94618 12.1119 8.76304 12.0484 8.58363C11.8712 8.64949 11.7068 8.7456 11.5625 8.86769C11.1588 9.35358 10.7738 9.85816 10.4075 10.3627C9.661 11.3041 9.13252 12.3994 8.86017 13.5696C8.75925 14.1377 8.7144 14.7171 8.63965 15.2927H8.60227L7.91829 12.5866L8.11264 12.8744C8.18941 12.7195 8.27813 12.5708 8.37801 12.4296C8.82279 11.8727 9.39465 11.3831 9.70113 10.7589C10.152 9.79287 10.5269 8.79315 10.8224 7.76883C10.937 7.28999 10.9972 6.79975 11.0018 6.30742C11.0018 6.18408 10.9159 6.057 10.8673 5.93366C10.7664 5.97477 10.6243 5.98972 10.572 6.06447C9.84316 7.06989 9.07695 8.05289 8.42287 9.09942C8.13714 9.65956 7.9044 10.2452 7.72767 10.8486C7.61766 10.4895 7.63751 10.1032 7.78373 9.75724C8.39658 8.20666 8.80735 6.58367 9.00593 4.92824C9.11886 3.76188 9.17001 2.59037 9.15918 1.41861C9.13817 1.27346 9.09533 1.13233 9.0321 1C8.89754 1.06728 8.71814 1.10465 8.62843 1.21304C7.86636 2.09526 7.31543 3.1396 7.01752 4.26668C6.61386 6.01589 6.79326 7.76509 7.12591 9.49935C7.27915 10.2955 7.44361 11.0878 7.60433 11.8914C6.80821 11.5887 6.10928 11.2822 5.39166 11.0579C4.1412 10.7207 2.82915 10.681 1.5606 10.9421C1.40124 10.9957 1.25303 11.0781 1.12329 11.185C1.2023 11.3448 1.3043 11.4921 1.42604 11.6223C2.28885 12.3235 3.36418 12.7109 4.47594 12.7212C5.3587 12.7447 6.24014 12.6389 7.09227 12.4072C7.55574 12.2764 7.61554 12.3287 7.72019 12.781C7.84727 13.3304 7.97435 13.8798 8.11638 14.4255C8.2173 14.8292 8.34064 15.2329 8.46398 15.6851C8.35559 15.6253 8.29579 15.5991 8.23972 15.5618C7.38924 14.9552 6.34271 14.6886 5.30569 14.8142C4.22178 14.9899 3.15656 15.2852 2.08386 15.5356C1.91153 15.5741 1.74368 15.6305 1.58302 15.7038C1.52891 15.7213 1.48173 15.7555 1.44828 15.8015C1.41482 15.8475 1.3968 15.9029 1.3968 15.9598C1.3968 16.0167 1.41482 16.0721 1.44828 16.1181C1.48173 16.1641 1.52891 16.1983 1.58302 16.2158C2.11467 16.485 2.67024 16.7039 3.24252 16.8699C3.93339 16.9918 4.63119 17.0705 5.33185 17.1054C6.48477 17.2165 7.64639 17.0165 8.69571 16.5261L9.9665 19.5535C8.57522 19.0275 7.0652 18.8981 5.6047 19.1798C4.48341 19.4227 3.36213 19.8152 2.27074 20.159C2.13245 20.2039 2.02406 20.3459 1.89698 20.4394C2.01285 20.5627 2.10629 20.7458 2.24832 20.8131C2.93449 21.1196 3.6445 21.3696 4.37129 21.5606C5.06516 21.6656 5.76637 21.7143 6.46809 21.7064C7.69369 21.7127 8.90316 21.427 9.9964 20.8729C10.1452 20.7984 10.2899 20.7161 10.43 20.6262L12.908 24.8161C12.5342 24.6703 12.0969 24.4797 11.6559 24.3452C9.7871 23.7696 7.8398 23.7696 5.90371 23.9714C5.19356 24.0387 4.49089 24.1919 3.78822 24.319C3.48547 24.3751 3.41446 24.5283 3.60507 24.7152C4.20797 25.3571 4.93038 25.8751 5.73178 26.2401C7.08356 26.7899 8.52965 27.0705 9.98893 27.0662C11.2316 27.1389 12.4647 26.81 13.506 26.128C13.5843 26.0955 13.6695 26.0833 13.7538 26.0925C13.8381 26.1016 13.9187 26.1318 13.9882 26.1803C14.7992 27.0736 15.5804 27.9931 16.4102 28.9499L15.7523 28.7331C14.9103 28.4311 14.0291 28.2523 13.136 28.2024C11.4523 28.1662 9.78151 28.5032 8.24346 29.1891C7.82111 29.3611 7.38007 29.4956 6.95398 29.6526C6.85547 29.6962 6.7605 29.7475 6.66992 29.8058C6.74467 29.9142 6.797 30.0824 6.89418 30.1198C7.69029 30.4039 8.47519 30.7963 9.29747 30.8972C11.0803 31.1177 12.8818 31.3569 14.6871 31.0131C15.6103 30.8412 16.5372 30.6842 17.2848 30.0413C17.3415 29.9993 17.4015 29.9618 17.4642 29.9292C17.5988 30.0823 17.7464 30.2236 17.9052 30.3515C18.72 30.9047 19.5348 31.4728 20.3646 31.9849L20.686 32.183C20.7056 32.1678 20.7199 32.1469 20.7271 32.1232V32.1232ZM10.6355 7.04747C10.2618 8.76677 9.88801 10.5048 8.49762 11.7756C9.03935 10.1283 9.75477 8.54336 10.6318 7.04747H10.6355ZM10.2169 6.92039C9.51799 8.52757 8.72187 10.3291 7.97435 12.1082C7.95566 9.97029 9.05079 8.322 10.2132 6.92039H10.2169ZM2.25206 11.1588C3.64834 10.9694 5.06984 11.1646 6.36344 11.7232L2.25206 11.2523V11.1588ZM1.79233 11.484L6.83438 12.097C5.63834 12.8146 2.59592 12.4035 1.79233 11.484ZM7.30905 8.89012C6.64002 6.27378 7.30905 2.8875 8.7742 1.53822C7.82858 3.88918 7.68282 6.39339 7.30905 8.89012ZM8.8041 2.27079C9.14049 3.18277 8.3967 7.73519 7.63797 9.14427C7.84353 6.83816 7.99304 4.52084 8.79663 2.27079H8.8041ZM7.38754 15.4459C7.67908 15.5805 7.94819 15.7561 8.22851 15.9131L8.19113 16.0439C6.27651 15.7861 4.34336 15.6923 2.41277 15.7636C4.04985 15.3113 5.67572 14.6573 7.38754 15.4459ZM2.26327 16.1934C2.88371 15.943 7.24925 16.0551 8.33316 16.3504C7.15581 17.0718 3.18272 16.9409 2.26327 16.1897V16.1934ZM9.22272 15.8197C9.93618 13.7067 10.842 11.6636 11.9288 9.71613C11.4242 11.9101 10.8822 14.1041 9.22272 15.8047V15.8197ZM11.839 8.98356L9.0321 15.0759C8.94239 12.5866 10.4524 10.815 11.839 8.9686V8.98356ZM2.28196 20.5702C4.60676 19.3517 8.31447 18.9144 10.0263 20.0506C9.9013 20.0495 9.77649 20.0407 9.65254 20.0245C8.34811 19.7853 7.05863 19.9759 5.77289 20.1703C4.80859 20.316 3.84428 20.458 2.87998 20.5889C2.68371 20.5914 2.48754 20.5789 2.29317 20.5515L2.28196 20.5702ZM3.2201 20.8094C5.52621 20.5291 7.80616 19.8937 10.1795 20.3235C9.17413 21.299 5.42903 21.9307 3.2201 20.8094ZM13.4612 12.8296C13.4724 12.9464 13.4724 13.0641 13.4612 13.1809C13.2593 14.1788 13.0874 15.1917 12.8258 16.171C12.558 17.0808 12.2284 17.9712 11.839 18.8359C11.6293 19.1861 11.3784 19.5099 11.0915 19.8002C11.013 19.9011 10.942 20.0058 10.8673 20.1104C10.8411 19.9609 10.7589 19.7928 10.8037 19.6694C11.4017 18.0273 12.0085 16.389 12.6239 14.7544C12.8632 14.1078 13.1136 13.465 13.3715 12.8184L13.4612 12.8296ZM12.8407 13.2594C12.0745 15.2702 11.312 17.2848 10.5234 19.3554C10.344 16.9223 11.3756 15.0086 12.8407 13.2594ZM12.6202 25.1002L4.78242 24.547C6.26252 23.9901 10.8187 23.9378 12.6202 25.1002V25.1002ZM11.4989 26.5952C9.31176 26.9623 7.06462 26.5915 5.11133 25.5412C4.80915 25.3467 4.52518 25.1253 4.26289 24.8797L4.30401 24.7974C7.30905 25.0267 10.3191 25.2584 13.3341 25.4926C13.3976 25.4926 13.4537 25.5898 13.5509 25.6758C12.9732 26.1737 12.2626 26.492 11.5064 26.5915L11.4989 26.5952ZM16.6755 29.4059C13.9246 29.5928 11.17 29.4844 8.34064 29.4807C11.1513 28.251 13.906 28.109 16.6755 29.4059ZM16.47 30.1945C15.1465 30.6833 13.7376 30.8982 12.3287 30.8262C11.7307 30.7851 11.1364 30.7216 10.5384 30.7178C9.47644 30.679 8.43465 30.4166 7.48099 29.9479C10.6841 29.6302 13.8985 30.0151 17.1016 29.6675C17.1016 29.7087 17.1203 29.746 17.1278 29.7834C16.9253 29.9498 16.7046 30.0928 16.47 30.2095V30.1945Z" fill="#AE7C78"/>
<path d="M15.7672 8.96105C15.4645 9.72726 14.8851 10.0375 14.2348 9.77959C13.9266 9.67159 13.6731 9.44716 13.5284 9.15441C13.3838 8.86165 13.3596 8.52389 13.4611 8.21352C13.6966 7.60055 14.5824 7.15952 15.1729 7.38377C15.4512 7.52488 15.6665 7.76505 15.7765 8.05697C15.8865 8.3489 15.8832 8.67143 15.7672 8.96105V8.96105ZM15.4757 8.84892C15.5536 8.62951 15.5504 8.38947 15.4668 8.17218C15.3832 7.95489 15.2246 7.77467 15.0197 7.66409C14.7627 7.60641 14.4938 7.63655 14.256 7.7497C14.0182 7.86286 13.8251 8.05249 13.7078 8.28828C13.6646 8.40714 13.6459 8.53351 13.6527 8.6598C13.6596 8.78608 13.692 8.90967 13.7478 9.02314C13.8037 9.13661 13.8819 9.23761 13.9778 9.32007C14.0737 9.40254 14.1853 9.46476 14.3058 9.503C14.7992 9.69736 15.244 9.4432 15.4757 8.84892Z" fill="#AE7C78"/>
<path d="M5.22695 8.10146C5.33037 8.13184 5.42673 8.18243 5.51046 8.25032C5.59418 8.3182 5.66361 8.40202 5.71471 8.49693C5.76581 8.59183 5.79757 8.69593 5.80816 8.8032C5.81875 8.91046 5.80795 9.01876 5.77638 9.12183C5.73027 9.24821 5.65944 9.36415 5.56803 9.46286C5.47662 9.56158 5.36646 9.64109 5.24398 9.69676C5.1215 9.75243 4.98916 9.78315 4.85468 9.78711C4.72021 9.79107 4.58628 9.76821 4.46074 9.71985C4.27048 9.62857 4.12424 9.4655 4.05416 9.26646C3.98408 9.06742 3.99588 8.8487 4.08698 8.65836C4.12019 8.54355 4.17708 8.43697 4.25398 8.34547C4.33088 8.25398 4.4261 8.17961 4.53349 8.12715C4.64087 8.07468 4.75806 8.04529 4.8775 8.04087C4.99694 8.03645 5.11598 8.05708 5.22695 8.10146V8.10146ZM5.11482 8.36309C5.0381 8.33127 4.9556 8.31577 4.87256 8.3176C4.78952 8.31942 4.70777 8.33852 4.63252 8.37369C4.55727 8.40885 4.49018 8.4593 4.4355 8.52183C4.38083 8.58435 4.33978 8.65759 4.31497 8.73685C4.25408 8.86918 4.24526 9.01958 4.29028 9.15812C4.33531 9.29665 4.43086 9.41314 4.55792 9.48438C4.74228 9.54511 4.94269 9.53469 5.11975 9.45515C5.29681 9.37561 5.43771 9.23271 5.51475 9.05455C5.53268 8.98362 5.53647 8.90986 5.52589 8.83747C5.51531 8.76508 5.49056 8.69549 5.45308 8.63266C5.41559 8.56984 5.36609 8.51502 5.30741 8.47133C5.24873 8.42764 5.18202 8.39594 5.11109 8.37804L5.11482 8.36309Z" fill="#AE7C78"/>
<path d="M12.9038 6.0158C13.0907 5.58597 13.3748 5.39909 13.6514 5.52243C13.8163 5.60949 13.9446 5.75268 14.0132 5.9261C14.0817 6.09953 14.086 6.29176 14.0251 6.46805C13.9407 6.60937 13.8063 6.71388 13.6485 6.76094C13.4907 6.80799 13.321 6.79417 13.173 6.72221C13.1032 6.70093 13.0392 6.66399 12.9859 6.61419C12.9326 6.5644 12.8914 6.50307 12.8654 6.4349C12.8394 6.36674 12.8294 6.29354 12.8361 6.2209C12.8427 6.14826 12.8659 6.0781 12.9038 6.0158Z" fill="#AE7C78"/>
<path d="M4.75986 6.26994C4.82944 6.29806 4.89243 6.34033 4.94483 6.39407C4.99722 6.44781 5.03788 6.51184 5.06424 6.58212C5.09059 6.65239 5.10206 6.72738 5.09792 6.80232C5.09378 6.87726 5.07411 6.95052 5.04018 7.01746C4.97854 7.15618 4.86927 7.26825 4.73215 7.33338C4.59503 7.39851 4.43913 7.4124 4.29265 7.37253C4.04223 7.27162 3.96001 6.96887 4.09082 6.6437C4.22164 6.31853 4.48701 6.15781 4.75986 6.26994Z" fill="#AE7C78"/>
<path d="M2.39772 7.59317C2.52854 7.2194 2.74159 7.2194 2.89857 7.32406C3.05555 7.42871 3.07797 7.60438 3.16767 7.75015C2.99974 7.84548 2.81399 7.90527 2.62198 7.92581C2.52107 7.9146 2.44631 7.66792 2.39772 7.59317Z" fill="#AE7C78"/>
<path d="M15.1133 6.05705C15.0422 5.80289 14.9376 5.61975 14.9862 5.55247C15.1205 5.40478 15.2768 5.27871 15.4496 5.17871C15.5265 5.3626 15.5696 5.55886 15.5767 5.75804C15.5767 5.85896 15.345 5.91502 15.1133 6.05705Z" fill="#AE7C78"/>
<path d="M21.2241 17.4679C24.2815 17.8753 25.1673 19.3853 25.1673 20.9514C25.1673 23.1491 23.4256 24.689 20.5289 24.689C19.9533 24.689 18.7909 24.6292 17.2062 24.6292C16.3017 24.6292 15.3374 24.6516 14.8104 24.689V24.3152C16.1223 24.2592 16.3764 24.0611 16.3764 22.6557V13.065C16.3764 11.6597 16.1223 11.4616 14.8104 11.4055V11.0317C15.3486 11.0691 16.3054 11.0878 17.1688 11.0878C18.3873 11.0878 19.6207 11.0504 20.0842 11.0504C22.7902 11.0355 24.1731 12.2913 24.1731 14.0816C24.1731 15.4496 23.3994 16.7802 21.2391 17.4455L21.2241 17.4679ZM18.1705 13.065V17.4455H19.4712C21.7437 17.4455 22.3043 15.9504 22.3043 14.2797C22.3043 12.3848 21.5306 11.4055 19.5945 11.4055C18.4247 11.4055 18.1705 11.7344 18.1705 13.065ZM23.235 20.8654C23.235 18.9032 22.2445 17.7632 19.7926 17.7632H18.1705V22.6483C18.1705 23.9975 18.4247 24.2517 19.6207 24.2517C22.1511 24.2517 23.235 23.0519 23.235 20.8654Z" fill="#AE7C78"/>
</svg>
